<svg width="241" height="53" viewBox="0 0 241 53" fill="none" xmlns="http://www.w3.org/2000/svg">
<path d="M10.1641 3.9H19.9641V0.399999H10.1641C4.76014 0.399999 0.364141 4.796 0.364141 10.2C0.364141 15.604 4.76014 20 10.1641 20H19.9641V16.5H10.1641C6.69214 16.5 3.86414 13.672 3.86414 10.2C3.86414 6.728 6.69214 3.9 10.1641 3.9ZM36.8492 0.371999L31.4732 7.344L26.0972 0.371999H21.6732L29.2612 10.2L29.7372 10.788V19.972H33.2372V10.732L33.6572 10.2L41.2452 0.371999H36.8492ZM21.6452 20.056L21.7012 20H21.6452V20.056ZM41.2452 20.056V20H41.2172L41.2452 20.056ZM59.7449 8.548C60.2769 7.736 60.5849 6.756 60.5849 5.692C60.5849 2.78 58.2049 0.399999 55.2929 0.399999H42.9449V20H56.3009C59.7449 20 62.5449 17.2 62.5449 13.756C62.5449 11.572 61.4249 9.668 59.7449 8.548ZM46.4449 3.9H55.3209C56.3009 3.9 57.1129 4.712 57.1129 5.692C57.1129 6.672 56.3009 7.484 55.3209 7.484H46.4449V3.9ZM56.3009 16.5H46.4449V10.984H56.3009C57.8129 10.984 59.0449 12.216 59.0449 13.728C59.0449 15.24 57.8129 16.472 56.3009 16.472V16.5ZM69.9479 3.9H84.2559V0.399999H69.9479C67.0359 0.399999 64.6839 2.78 64.6839 5.692V14.708C64.6839 17.62 67.0359 20 69.9479 20H84.2559V16.5H69.9479C68.9679 16.5 68.1559 15.688 68.1559 14.708V11.012H80.7559V7.512H68.1559V5.692C68.1559 4.712 68.9679 3.9 69.9479 3.9ZM100.07 10.956C100.602 10.9 101.106 10.76 101.582 10.536C103.402 9.696 104.662 7.848 104.662 5.72C104.662 4.264 104.074 2.948 103.122 1.968C102.17 1.016 100.854 0.427998 99.3984 0.427998H87.0224V20.028H90.5224V11.012H94.0224C95.2824 11.012 96.3744 11.684 96.9904 12.692L97.0744 12.86L98.9504 16.528L100.742 20.028H104.662L102.87 16.528L100.07 10.956ZM90.5224 7.54V3.928H99.3984C100.014 3.928 100.434 4.208 100.658 4.432C100.854 4.628 101.19 5.076 101.19 5.72C101.19 6.42 100.77 7.064 100.126 7.344C99.9024 7.456 99.6504 7.512 99.3984 7.512L90.5224 7.54ZM126.04 5.804V5.692C126.04 2.78 123.66 0.399999 120.748 0.399999H112.796C109.884 0.399999 107.532 2.78 107.532 5.692V5.804C107.532 6.924 107.868 7.96 108.456 8.8C108.652 9.108 108.876 9.388 109.128 9.64C110.08 10.564 111.368 11.124 112.796 11.124H119.852C121.336 11.124 122.568 12.328 122.568 13.812C122.568 15.296 121.336 16.5 119.852 16.5H113.72C112.236 16.5 111.032 15.296 111.032 13.812H107.532C107.532 17.228 110.304 20 113.72 20H119.852C123.268 20 126.04 17.228 126.04 13.812C126.04 12.328 125.508 10.956 124.64 9.892C124.556 9.808 124.5 9.724 124.416 9.64C123.296 8.408 121.672 7.624 119.852 7.624H112.796C111.816 7.624 111.004 6.812 111.004 5.832V5.72C111.004 4.74 111.816 3.928 112.796 3.928H120.748C121.728 3.928 122.54 4.74 122.54 5.72V5.832L126.04 5.804ZM127.902 0.427998V3.928H135.938V20.028H139.438V3.928H147.474V0.427998H127.902ZM163.316 10.956C163.848 10.9 164.352 10.76 164.828 10.536C166.648 9.696 167.908 7.848 167.908 5.72C167.908 4.264 167.32 2.948 166.368 1.968C165.416 1.016 164.1 0.427998 162.644 0.427998H150.268V20.028H153.768V11.012H157.268C158.528 11.012 159.62 11.684 160.236 12.692L160.32 12.86L162.196 16.528L163.988 20.028H167.908L166.116 16.528L163.316 10.956ZM153.768 7.54V3.928H162.644C163.26 3.928 163.68 4.208 163.904 4.432C164.1 4.628 164.436 5.076 164.436 5.72C164.436 6.42 164.016 7.064 163.372 7.344C163.148 7.456 162.896 7.512 162.644 7.512L153.768 7.54ZM174.25 20V0.399999H170.75V20H174.25ZM177.039 0.399999V20H186.839C189.527 20 191.963 18.908 193.727 17.116C193.923 16.92 194.119 16.724 194.287 16.528C195.743 14.82 196.611 12.608 196.611 10.2C196.611 4.796 192.215 0.427998 186.811 0.427998L177.039 0.399999ZM180.511 3.928H186.811C190.283 3.928 193.111 6.756 193.111 10.228C193.111 13.7 190.283 16.528 186.811 16.528H180.511V3.928ZM204.725 3.9H219.033V0.399999H204.725C201.813 0.399999 199.461 2.78 199.461 5.692V14.708C199.461 17.62 201.813 20 204.725 20H219.033V16.5H204.725C203.745 16.5 202.933 15.688 202.933 14.708V11.012H215.533V7.512H202.933V5.692C202.933 4.712 203.745 3.9 204.725 3.9ZM240.364 5.804V5.692C240.364 2.78 237.984 0.399999 235.072 0.399999H227.12C224.208 0.399999 221.856 2.78 221.856 5.692V5.804C221.856 6.924 222.192 7.96 222.78 8.8C222.976 9.108 223.2 9.388 223.452 9.64C224.404 10.564 225.692 11.124 227.12 11.124H234.176C235.66 11.124 236.892 12.328 236.892 13.812C236.892 15.296 235.66 16.5 234.176 16.5H228.044C226.56 16.5 225.356 15.296 225.356 13.812H221.856C221.856 17.228 224.628 20 228.044 20H234.176C237.592 20 240.364 17.228 240.364 13.812C240.364 12.328 239.832 10.956 238.964 9.892C238.88 9.808 238.824 9.724 238.74 9.64C237.62 8.408 235.996 7.624 234.176 7.624H227.12C226.14 7.624 225.328 6.812 225.328 5.832V5.72C225.328 4.74 226.14 3.928 227.12 3.928H235.072C236.052 3.928 236.864 4.74 236.864 5.72V5.832L240.364 5.804ZM55.505 33.72H60.605C62.7517 33.72 64.385 34.36 65.505 35.64C66.625 36.92 67.185 38.66 67.185 40.86C67.185 43.06 66.6183 44.8 65.485 46.08C64.365 47.36 62.7383 48 60.605 48H55.505V33.72ZM56.825 46.8H60.745C62.4917 46.8 63.7783 46.2467 64.605 45.14C65.445 44.0333 65.865 42.6067 65.865 40.86C65.865 39.1133 65.445 37.6867 64.605 36.58C63.7783 35.4733 62.4917 34.92 60.745 34.92H56.825V46.8ZM71.352 38V48H70.092V38H71.352ZM71.412 35.04H70.032V33.46H71.412V35.04ZM82.2772 38H83.4972V47.5C83.4972 48.9133 83.0972 50.0333 82.2972 50.86C81.5105 51.7 80.4039 52.12 78.9772 52.12C77.7372 52.12 76.7372 51.86 75.9772 51.34C75.2172 50.8333 74.7505 50.1133 74.5772 49.18H75.8172C76.0972 50.3933 77.1439 51 78.9572 51C81.1439 51 82.2372 49.8333 82.2372 47.5V46.62H81.8372C81.0905 47.54 80.0305 48 78.6572 48C77.2972 48 76.2105 47.52 75.3972 46.56C74.5839 45.6 74.1772 44.3733 74.1772 42.88C74.1772 41.3733 74.5839 40.14 75.3972 39.18C76.2105 38.22 77.2972 37.74 78.6572 37.74C80.0439 37.74 81.1172 38.2 81.8772 39.12H82.2772V38ZM78.7972 46.88C79.9305 46.88 80.7839 46.5 81.3572 45.74C81.9439 44.9667 82.2372 44.0133 82.2372 42.88C82.2372 41.7467 81.9439 40.7933 81.3572 40.02C80.7839 39.2467 79.9305 38.86 78.7972 38.86C77.7439 38.86 76.9172 39.2267 76.3172 39.96C75.7305 40.68 75.4372 41.6533 75.4372 42.88C75.4372 44.0933 75.7305 45.0667 76.3172 45.8C76.9172 46.52 77.7439 46.88 78.7972 46.88ZM88.2075 38V48H86.9475V38H88.2075ZM88.2675 35.04H86.8875V33.46H88.2675V35.04ZM93.6327 38H96.2927V39.12H93.6327V45.18C93.6327 45.7667 93.7793 46.2 94.0727 46.48C94.366 46.7467 94.8793 46.88 95.6127 46.88H96.2927V48H95.5927C94.486 48 93.6727 47.7933 93.1527 47.38C92.6327 46.9667 92.3727 46.28 92.3727 45.32V39.12H90.5327V38H92.3727V34.9H93.6327V38ZM105.633 48V46.88H105.233C104.913 47.2933 104.466 47.6267 103.893 47.88C103.333 48.1333 102.699 48.26 101.993 48.26C100.859 48.26 99.9727 47.9467 99.3327 47.32C98.6927 46.6933 98.3727 45.9333 98.3727 45.04C98.3727 44.1333 98.6727 43.36 99.2727 42.72C99.886 42.08 100.833 41.76 102.113 41.76H105.593V41.14C105.593 40.46 105.373 39.9133 104.933 39.5C104.493 39.0733 103.813 38.86 102.893 38.86C102.079 38.86 101.453 39.0133 101.013 39.32C100.573 39.6133 100.333 40.0333 100.293 40.58H99.0327C99.1127 39.6867 99.4993 38.9933 100.193 38.5C100.886 37.9933 101.786 37.74 102.893 37.74C104.106 37.74 105.066 38.0333 105.773 38.62C106.493 39.2067 106.853 40.02 106.853 41.06V48H105.633ZM102.173 47.14C103.119 47.14 103.926 46.8467 104.593 46.26C105.259 45.66 105.593 44.9067 105.593 44V42.82H102.453C101.546 42.82 100.846 43.0133 100.353 43.4C99.8727 43.7733 99.6327 44.2867 99.6327 44.94C99.6327 45.6333 99.8593 46.1733 100.313 46.56C100.779 46.9467 101.399 47.14 102.173 47.14ZM111.351 33.46V48H110.091V33.46H111.351ZM119.259 43.06H114.059V41.92H119.259V43.06ZM128.426 48V46.88H128.026C127.706 47.2933 127.259 47.6267 126.686 47.88C126.126 48.1333 125.492 48.26 124.786 48.26C123.652 48.26 122.766 47.9467 122.126 47.32C121.486 46.6933 121.166 45.9333 121.166 45.04C121.166 44.1333 121.466 43.36 122.066 42.72C122.679 42.08 123.626 41.76 124.906 41.76H128.386V41.14C128.386 40.46 128.166 39.9133 127.726 39.5C127.286 39.0733 126.606 38.86 125.686 38.86C124.872 38.86 124.246 39.0133 123.806 39.32C123.366 39.6133 123.126 40.0333 123.086 40.58H121.826C121.906 39.6867 122.292 38.9933 122.986 38.5C123.679 37.9933 124.579 37.74 125.686 37.74C126.899 37.74 127.859 38.0333 128.566 38.62C129.286 39.2067 129.646 40.02 129.646 41.06V48H128.426ZM124.966 47.14C125.912 47.14 126.719 46.8467 127.386 46.26C128.052 45.66 128.386 44.9067 128.386 44V42.82H125.246C124.339 42.82 123.639 43.0133 123.146 43.4C122.666 43.7733 122.426 44.2867 122.426 44.94C122.426 45.6333 122.652 46.1733 123.106 46.56C123.572 46.9467 124.192 47.14 124.966 47.14ZM140.344 38H141.564V47.5C141.564 48.9133 141.164 50.0333 140.364 50.86C139.577 51.7 138.47 52.12 137.044 52.12C135.804 52.12 134.804 51.86 134.044 51.34C133.284 50.8333 132.817 50.1133 132.644 49.18H133.884C134.164 50.3933 135.21 51 137.024 51C139.21 51 140.304 49.8333 140.304 47.5V46.62H139.904C139.157 47.54 138.097 48 136.724 48C135.364 48 134.277 47.52 133.464 46.56C132.65 45.6 132.244 44.3733 132.244 42.88C132.244 41.3733 132.65 40.14 133.464 39.18C134.277 38.22 135.364 37.74 136.724 37.74C138.11 37.74 139.184 38.2 139.944 39.12H140.344V38ZM136.864 46.88C137.997 46.88 138.85 46.5 139.424 45.74C140.01 44.9667 140.304 44.0133 140.304 42.88C140.304 41.7467 140.01 40.7933 139.424 40.02C138.85 39.2467 137.997 38.86 136.864 38.86C135.81 38.86 134.984 39.2267 134.384 39.96C133.797 40.68 133.504 41.6533 133.504 42.88C133.504 44.0933 133.797 45.0667 134.384 45.8C134.984 46.52 135.81 46.88 136.864 46.88ZM153.354 42.38V42.78H145.574V43.06C145.574 44.3 145.887 45.2933 146.514 46.04C147.154 46.7733 148.007 47.14 149.074 47.14C150.607 47.14 151.547 46.5467 151.894 45.36H153.154C152.981 46.2133 152.547 46.9133 151.854 47.46C151.161 47.9933 150.234 48.26 149.074 48.26C147.581 48.26 146.414 47.7533 145.574 46.74C144.734 45.7267 144.314 44.44 144.314 42.88C144.314 41.3333 144.734 40.0933 145.574 39.16C146.427 38.2133 147.587 37.74 149.054 37.74C150.427 37.74 151.487 38.1933 152.234 39.1C152.981 40.0067 153.354 41.1 153.354 42.38ZM149.014 38.86C148.054 38.86 147.281 39.1333 146.694 39.68C146.121 40.2267 145.774 40.8867 145.654 41.66H152.054C152.001 40.8867 151.707 40.2267 151.174 39.68C150.641 39.1333 149.921 38.86 149.014 38.86ZM164.706 48H163.446V41.86C163.446 39.86 162.52 38.86 160.666 38.86C159.706 38.86 158.913 39.22 158.286 39.94C157.673 40.66 157.366 41.52 157.366 42.52V48H156.106V38H157.326V39.12H157.726C158.006 38.72 158.426 38.3933 158.986 38.14C159.56 37.8733 160.18 37.74 160.846 37.74C162.046 37.74 162.986 38.0867 163.666 38.78C164.36 39.46 164.706 40.3867 164.706 41.56V48ZM174.882 45.14H176.142C175.929 46.0867 175.469 46.8467 174.762 47.42C174.069 47.98 173.176 48.26 172.082 48.26C170.589 48.26 169.416 47.76 168.562 46.76C167.722 45.76 167.302 44.5067 167.302 43C167.302 41.4667 167.722 40.2067 168.562 39.22C169.402 38.2333 170.576 37.74 172.082 37.74C173.202 37.74 174.102 38.02 174.782 38.58C175.462 39.1267 175.902 39.86 176.102 40.78H174.842C174.416 39.5 173.496 38.86 172.082 38.86C170.909 38.86 170.029 39.2467 169.442 40.02C168.856 40.7933 168.562 41.7733 168.562 42.96C168.562 44.1467 168.856 45.14 169.442 45.94C170.042 46.74 170.922 47.14 172.082 47.14C173.616 47.14 174.549 46.4733 174.882 45.14ZM181.003 52H179.723L181.783 47.06L177.543 38H178.903L182.202 45.06H182.683L185.663 38H186.983L181.003 52Z" fill="white"/>
</svg>
