<svg width="241" height="21" viewBox="0 0 241 21" fill="none" xmlns="http://www.w3.org/2000/svg">
<path d="M10.1641 3.89909H19.9641V0.399094H10.1641C4.76013 0.399094 0.364136 4.79509 0.364136 10.1991C0.364136 15.6031 4.76013 19.9991 10.1641 19.9991H19.9641V16.4991H10.1641C6.69213 16.4991 3.86413 13.6711 3.86413 10.1991C3.86413 6.72709 6.69213 3.89909 10.1641 3.89909ZM36.8492 0.371094L31.4732 7.34309L26.0972 0.371094H21.6732L29.2612 10.1991L29.7372 10.7871V19.9711H33.2372V10.7311L33.6572 10.1991L41.2452 0.371094H36.8492ZM21.6452 20.0551L21.7012 19.9991H21.6452V20.0551ZM41.2452 20.0551V19.9991H41.2172L41.2452 20.0551ZM59.7449 8.5471C60.2769 7.7351 60.5849 6.75509 60.5849 5.69109C60.5849 2.77909 58.2049 0.399094 55.2929 0.399094H42.9449V19.9991H56.3009C59.7449 19.9991 62.5449 17.1991 62.5449 13.7551C62.5449 11.5711 61.4249 9.6671 59.7449 8.5471ZM46.4449 3.89909H55.3209C56.3009 3.89909 57.1129 4.71109 57.1129 5.69109C57.1129 6.67109 56.3009 7.4831 55.3209 7.4831H46.4449V3.89909ZM56.3009 16.4991H46.4449V10.9831H56.3009C57.8129 10.9831 59.0449 12.2151 59.0449 13.7271C59.0449 15.2391 57.8129 16.4711 56.3009 16.4711V16.4991ZM69.9479 3.89909H84.2559V0.399094H69.9479C67.0359 0.399094 64.6839 2.77909 64.6839 5.69109V14.7071C64.6839 17.6191 67.0359 19.9991 69.9479 19.9991H84.2559V16.4991H69.9479C68.9679 16.4991 68.1559 15.6871 68.1559 14.7071V11.0111H80.7559V7.5111H68.1559V5.69109C68.1559 4.71109 68.9679 3.89909 69.9479 3.89909ZM100.07 10.9551C100.602 10.8991 101.106 10.7591 101.582 10.5351C103.402 9.6951 104.662 7.84709 104.662 5.71909C104.662 4.26309 104.074 2.94709 103.122 1.96709C102.17 1.01509 100.854 0.427093 99.3984 0.427093H87.0224V20.0271H90.5224V11.0111H94.0224C95.2824 11.0111 96.3744 11.6831 96.9904 12.6911L97.0744 12.8591L98.9504 16.5271L100.742 20.0271H104.662L102.87 16.5271L100.07 10.9551ZM90.5224 7.53909V3.92709H99.3984C100.014 3.92709 100.434 4.2071 100.658 4.4311C100.854 4.6271 101.19 5.07509 101.19 5.71909C101.19 6.41909 100.77 7.06309 100.126 7.34309C99.9024 7.45509 99.6504 7.5111 99.3984 7.5111L90.5224 7.53909ZM126.04 5.80309V5.69109C126.04 2.77909 123.66 0.399094 120.748 0.399094H112.796C109.884 0.399094 107.532 2.77909 107.532 5.69109V5.80309C107.532 6.92309 107.868 7.9591 108.456 8.7991C108.652 9.1071 108.876 9.3871 109.128 9.6391C110.08 10.5631 111.368 11.1231 112.796 11.1231H119.852C121.336 11.1231 122.568 12.3271 122.568 13.8111C122.568 15.2951 121.336 16.4991 119.852 16.4991H113.72C112.236 16.4991 111.032 15.2951 111.032 13.8111H107.532C107.532 17.2271 110.304 19.9991 113.72 19.9991H119.852C123.268 19.9991 126.04 17.2271 126.04 13.8111C126.04 12.3271 125.508 10.9551 124.64 9.8911C124.556 9.8071 124.5 9.7231 124.416 9.6391C123.296 8.4071 121.672 7.6231 119.852 7.6231H112.796C111.816 7.6231 111.004 6.81109 111.004 5.83109V5.71909C111.004 4.73909 111.816 3.92709 112.796 3.92709H120.748C121.728 3.92709 122.54 4.73909 122.54 5.71909V5.83109L126.04 5.80309ZM127.902 0.427093V3.92709H135.938V20.0271H139.438V3.92709H147.474V0.427093H127.902ZM163.316 10.9551C163.848 10.8991 164.352 10.7591 164.828 10.5351C166.648 9.6951 167.908 7.84709 167.908 5.71909C167.908 4.26309 167.32 2.94709 166.368 1.96709C165.416 1.01509 164.1 0.427093 162.644 0.427093H150.268V20.0271H153.768V11.0111H157.268C158.528 11.0111 159.62 11.6831 160.236 12.6911L160.32 12.8591L162.196 16.5271L163.988 20.0271H167.908L166.116 16.5271L163.316 10.9551ZM153.768 7.53909V3.92709H162.644C163.26 3.92709 163.68 4.2071 163.904 4.4311C164.1 4.6271 164.436 5.07509 164.436 5.71909C164.436 6.41909 164.016 7.06309 163.372 7.34309C163.148 7.45509 162.896 7.5111 162.644 7.5111L153.768 7.53909ZM174.25 19.9991V0.399094H170.75V19.9991H174.25ZM177.039 0.399094V19.9991H186.839C189.527 19.9991 191.963 18.9071 193.727 17.1151C193.923 16.9191 194.119 16.7231 194.287 16.5271C195.743 14.8191 196.611 12.6071 196.611 10.1991C196.611 4.79509 192.215 0.427093 186.811 0.427093L177.039 0.399094ZM180.511 3.92709H186.811C190.283 3.92709 193.111 6.75509 193.111 10.2271C193.111 13.6991 190.283 16.5271 186.811 16.5271H180.511V3.92709ZM204.725 3.89909H219.033V0.399094H204.725C201.813 0.399094 199.461 2.77909 199.461 5.69109V14.7071C199.461 17.6191 201.813 19.9991 204.725 19.9991H219.033V16.4991H204.725C203.745 16.4991 202.933 15.6871 202.933 14.7071V11.0111H215.533V7.5111H202.933V5.69109C202.933 4.71109 203.745 3.89909 204.725 3.89909ZM240.364 5.80309V5.69109C240.364 2.77909 237.984 0.399094 235.072 0.399094H227.12C224.208 0.399094 221.856 2.77909 221.856 5.69109V5.80309C221.856 6.92309 222.192 7.9591 222.78 8.7991C222.976 9.1071 223.2 9.3871 223.452 9.6391C224.404 10.5631 225.692 11.1231 227.12 11.1231H234.176C235.66 11.1231 236.892 12.3271 236.892 13.8111C236.892 15.2951 235.66 16.4991 234.176 16.4991H228.044C226.56 16.4991 225.356 15.2951 225.356 13.8111H221.856C221.856 17.2271 224.628 19.9991 228.044 19.9991H234.176C237.592 19.9991 240.364 17.2271 240.364 13.8111C240.364 12.3271 239.832 10.9551 238.964 9.8911C238.88 9.8071 238.824 9.7231 238.74 9.6391C237.62 8.4071 235.996 7.6231 234.176 7.6231H227.12C226.14 7.6231 225.328 6.81109 225.328 5.83109V5.71909C225.328 4.73909 226.14 3.92709 227.12 3.92709H235.072C236.052 3.92709 236.864 4.73909 236.864 5.71909V5.83109L240.364 5.80309Z" fill="white"/>
</svg>
